<?xml version="1.0" ?><svg data-name="Capa 1" id="Capa_1" viewBox="0 0 20 19.84" xmlns="http://www.w3.org/2000/svg"><path d="M14.41,5.21H11.74a1.36,1.36,0,0,0-1.36-1.3H9.62a1.36,1.36,0,0,0-1.36,1.3H5.59a1.1,1.1,0,0,0,0,2.19h.12v7.17a1.39,1.39,0,0,0,1.37,1.37H13a1.38,1.38,0,0,0,1.37-1.37V7.4h0a1.1,1.1,0,0,0,0-2.19ZM9.62,4.58h.76a.69.69,0,0,1,.68.63H8.94A.69.69,0,0,1,9.62,4.58Zm4.08,10a.7.7,0,0,1-.7.7H7.08a.71.71,0,0,1-.7-.7V7.4H7.79v4.69a.34.34,0,0,0,.67,0V7.4H9.88v6a.34.34,0,0,0,.67,0v-6H12v4.69a.34.34,0,0,0,.67,0V7.4H13.7Zm.71-7.84H5.59a.43.43,0,0,1,0-.85h8.82a.43.43,0,0,1,0,.85Z"/></svg>