<?xml version="1.0" encoding="UTF-8" standalone="no"?>
<!-- Created with Inkscape (http://www.inkscape.org/) -->

<svg
   width="512"
   height="512"
   viewBox="0 0 512.00002 512"
   version="1.1"
   id="svg5"
   inkscape:version="1.2.2 (b0a8486541, 2022-12-01, custom)"
   sodipodi:docname="library_management_system.svg"
   inkscape:export-filename="library_management_system.png"
   inkscape:export-xdpi="96"
   inkscape:export-ydpi="96"
   xml:space="preserve"
   xmlns:inkscape="http://www.inkscape.org/namespaces/inkscape"
   xmlns:sodipodi="http://sodipodi.sourceforge.net/DTD/sodipodi-0.dtd"
   xmlns="http://www.w3.org/2000/svg"
   xmlns:svg="http://www.w3.org/2000/svg"><sodipodi:namedview
     id="namedview7"
     pagecolor="#ffffff"
     bordercolor="#000000"
     borderopacity="0.25"
     inkscape:showpageshadow="2"
     inkscape:pageopacity="0.0"
     inkscape:pagecheckerboard="false"
     inkscape:deskcolor="#d1d1d1"
     inkscape:document-units="px"
     showgrid="false"
     inkscape:zoom="0.24306796"
     inkscape:cx="-719.96326"
     inkscape:cy="174.84822"
     inkscape:window-width="1318"
     inkscape:window-height="704"
     inkscape:window-x="0"
     inkscape:window-y="27"
     inkscape:window-maximized="1"
     inkscape:current-layer="layer1" /><defs
     id="defs2" /><g
     inkscape:label="BG"
     inkscape:groupmode="layer"
     id="layer1"><ellipse
       style="display:none;fill:#000000;stroke-width:1.08487"
       id="path65"
       cx="255.27272"
       cy="256.00003"
       rx="255.27272"
       ry="256.00003"
       sodipodi:insensitive="true" /><rect
       style="display:inline;fill:#15803d;fill-opacity:1;stroke-width:1.00163"
       id="rect755"
       width="512"
       height="512"
       x="0"
       y="0"
       inkscape:label="Rect"
       sodipodi:insensitive="true" /></g><g
     inkscape:groupmode="layer"
     id="layer2"
     inkscape:label="l"
     sodipodi:insensitive="true"><path
       style="font-size:449.755px;fill:#000000;stroke-width:7.02743"
       d="m 168.50905,359.09084 c 12.2129,44.31599 117.57638,13.67443 101.37028,21.06621 -27.13669,12.37733 -127.80185,72.79598 -127.67556,-20.34411 0.14178,-104.56764 -4.00971,-253.55383 -30.67503,-249.55393 l 51.62844,13.25218"
       id="path670"
       sodipodi:nodetypes="csscc"
       transform="matrix(0.98604589,0,0,1.0141516,47.311872,-2.0570376)"
       inkscape:label="letter-l"
       sodipodi:insensitive="true" /></g><g
     inkscape:groupmode="layer"
     id="layer4"
     inkscape:label="B"
     sodipodi:insensitive="true"><path
       style="fill:#ffff00;stroke-width:1.24752"
       d="m 215.98898,125.47932 v 23.09585 c 0,0 86.12588,-4.48922 94.75613,27.2201 8.23559,30.25926 -64.7865,68.21831 -64.7865,68.21831 0,0 83.54999,23.69507 97.32232,59.05329 9.76141,25.06084 2.72638,52.73468 -22.49504,77.48515 0,0 52.86047,-45.6484 49.17543,-75.43831 -3.83408,-30.99475 -68.74783,-63.65616 -68.74783,-63.65616 0,0 42.93042,-49.00096 32.35252,-73.63584 -16.4356,-38.27688 -117.57703,-42.34239 -117.57703,-42.34239 z"
       id="path682"
       sodipodi:nodetypes="ccacacacac"
       inkscape:label="letter-B"
       sodipodi:insensitive="true" /></g></svg>
